<svg id="Capa_1" enable-background="new 0 0 512.114 512.114" height="512" viewBox="0 0 512.114 512.114" width="512" xmlns="http://www.w3.org/2000/svg"><path d="m172.688 244.808c-.478 0-.956-.022-1.436-.069l-141.741-13.621c-5.78-.556-10.72-4.396-12.683-9.861s-.595-11.571 3.511-15.677l96.898-96.898c21.82-21.82 50.9-33.837 81.883-33.837s60.064 12.017 81.884 33.837l6.404 6.404c5.858 5.858 5.858 15.355 0 21.213l-104.115 104.115c-2.826 2.826-6.647 4.394-10.605 4.394z" fill="#00607f"/><path d="m296.02 496.263c-1.7 0-3.413-.289-5.068-.883-5.464-1.963-9.306-6.903-9.86-12.682l-13.622-141.741c-.428-4.458 1.158-8.875 4.325-12.042l104.114-104.115c5.857-5.858 15.354-5.858 21.213 0l6.405 6.405c45.149 45.15 45.149 118.616 0 163.766l-96.899 96.898c-2.862 2.862-6.697 4.394-10.608 4.394z" fill="#002c3c"/><path d="m350.811 24.471c-46.979 20.043-93.843 51.792-135.069 93.017-25.755 25.755-48.143 54.023-66.277 83.495l161.573 161.573c29.472-18.135 57.74-40.522 83.495-66.278 41.225-41.225 72.974-88.09 93.016-135.069z" fill="#f3eee9"/><path d="m231.43 282.949 79.608 79.608c29.472-18.135 57.74-40.522 83.495-66.278 41.225-41.225 72.974-88.09 93.016-135.069l-67.988-67.988z" fill="#e9dfda"/><path d="m496.77 3.399c-47.208-9.205-102.286.576-156.648 25.838l142.663 142.663c25.261-54.364 35.042-109.442 25.838-156.648-1.17-5.997-5.857-10.684-11.853-11.853z" fill="#ff7c48"/><path d="m156.156 190.448c-13.174 20.072-24.382 40.788-33.329 61.725-8.028 18.788-4.042 39.432 10.404 53.877l72.741 72.741c9.511 9.511 21.708 14.488 34.293 14.488 6.53 0 13.166-1.34 19.584-4.083 20.937-8.947 41.653-20.156 61.725-33.33z" fill="#ff7c48"/><ellipse clip-rule="evenodd" cx="330.765" cy="181.257" fill="#ffdc55" fill-rule="evenodd" rx="33.977" ry="33.977" transform="matrix(.707 -.707 .707 .707 -31.289 286.976)"/><path d="m330.765 230.233c-13.083 0-25.382-5.095-34.632-14.345-19.096-19.096-19.096-50.167 0-69.263 19.095-19.095 50.166-19.096 69.263 0 19.096 19.096 19.096 50.167 0 69.263-9.25 9.251-21.549 14.345-34.631 14.345zm-.001-67.944c-4.859 0-9.719 1.85-13.418 5.549-7.398 7.399-7.398 19.438 0 26.837 3.584 3.584 8.35 5.558 13.419 5.558 5.068 0 9.834-1.974 13.418-5.558 7.398-7.399 7.398-19.438 0-26.837-3.699-3.699-8.559-5.549-13.419-5.549z" fill="#8ee16a"/><path d="m15.094 512.114c-3.839 0-7.678-1.464-10.606-4.394-5.858-5.858-5.858-15.355 0-21.213l120.926-120.926c5.857-5.858 15.355-5.858 21.213 0s5.858 15.355 0 21.213l-120.927 120.927c-2.928 2.929-6.767 4.393-10.606 4.393z" fill="#eee1dc"/><path d="m47.127 383.979c-3.839 0-7.678-1.464-10.606-4.394-5.858-5.858-5.858-15.355 0-21.213l40.843-40.842c5.858-5.857 15.356-5.857 21.213 0 5.858 5.858 5.858 15.355 0 21.213l-40.843 40.842c-2.929 2.93-6.769 4.394-10.607 4.394z" fill="#eee1dc"/><path d="m143.229 480.08c-3.839 0-7.678-1.464-10.606-4.394-5.858-5.857-5.858-15.355 0-21.213l40.842-40.842c5.857-5.858 15.355-5.858 21.213 0 5.858 5.857 5.858 15.355 0 21.213l-40.842 40.842c-2.93 2.93-6.768 4.394-10.607 4.394z" fill="#e0d2cd"/><path d="m504.525 7.536-92.659 93.446 70.918 70.918c25.261-54.364 35.042-109.442 25.838-156.648-.582-2.989-2.039-5.652-4.097-7.716z" fill="#ff415b"/><path clip-rule="evenodd" d="m307.617 206.116c13.323 12.42 34.191 12.148 47.173-.834 13.05-13.05 13.256-34.068.636-47.381z" fill="#ffcb00" fill-rule="evenodd"/><path d="m344.845 168.571c6.707 7.441 6.5 18.941-.663 26.104-3.584 3.584-8.35 5.558-13.418 5.558-4.684 0-9.096-1.703-12.569-4.787l-21.141 21.32c9.139 8.686 21.053 13.467 33.709 13.467 13.082 0 25.381-5.095 34.631-14.345 18.892-18.892 19.081-49.497.593-68.64z" fill="#00cab1"/><path d="m171.037 343.855 34.935 34.935c9.511 9.511 21.708 14.488 34.293 14.488 6.53 0 13.166-1.34 19.584-4.083 20.937-8.947 41.653-20.156 61.725-33.33l-81.567-81.567z" fill="#ff415b"/><path d="m146.626 365.581c-.262-.262-.54-.499-.817-.738l-142.06 142.061c.239.276.476.554.739.817 2.929 2.929 6.768 4.394 10.606 4.394s7.678-1.464 10.606-4.394l120.926-120.926c5.859-5.859 5.859-15.356 0-21.214z" fill="#e0d2cd"/></svg>